<?xml version="1.0" encoding="UTF-8"?>
<svg width="7px" height="14px" viewBox="0 0 7 14" version="1.1" xmlns="http://www.w3.org/2000/svg" xmlns:xlink="http://www.w3.org/1999/xlink">
    <!-- Generator: Sketch 40.3 (33839) - http://www.bohemiancoding.com/sketch -->
    <title>Group</title>
    <desc>Created with Sketch.</desc>
    <defs></defs>
    <g id="Page-1" stroke="none" stroke-width="1" fill="none" fill-rule="evenodd">
        <g id="Group" transform="translate(1.000000, 1.000000)" stroke="#FFFFFF" fill="#FFFFFF">
            <path d="M5.13016084,9.67403497 C5.02561888,9.56939161 4.90160839,9.51706993 4.75843357,9.51706993 L4.22963986,9.51706993 L4.22963986,4.75853497 C4.22963986,4.61536014 4.17731818,4.49145105 4.07277622,4.38680769 C3.96803147,4.28216434 3.84412238,4.22984266 3.70104895,4.22984266 L0.528692308,4.22984266 C0.385517483,4.22984266 0.261608392,4.28216434 0.156965035,4.38680769 C0.0523216783,4.49145105 -4.4408921e-16,4.61536014 -4.4408921e-16,4.75853497 L-4.4408921e-16,5.81602098 C-4.4408921e-16,5.9591958 0.0523216783,6.08320629 0.156965035,6.18774825 C0.261608392,6.29239161 0.385517483,6.34471329 0.528692308,6.34471329 L1.05748601,6.34471329 L1.05748601,9.51706993 L0.528692308,9.51706993 C0.385517483,9.51706993 0.261608392,9.56939161 0.156965035,9.67403497 C0.0523216783,9.77867832 -4.4408921e-16,9.90258741 -4.4408921e-16,10.0457622 L-4.4408921e-16,11.1032483 C-4.4408921e-16,11.2464231 0.0523216783,11.3704336 0.156965035,11.4751783 C0.261608392,11.5796189 0.385517483,11.632042 0.528692308,11.632042 L4.75843357,11.632042 C4.90160839,11.632042 5.02551748,11.5796189 5.13016084,11.4751783 C5.2347028,11.3704336 5.28702448,11.2464231 5.28702448,11.1032483 L5.28702448,10.0457622 C5.28702448,9.90258741 5.23500699,9.77867832 5.13016084,9.67403497 L5.13016084,9.67403497 Z" id="Shape"></path>
            <path d="M1.58607692,2.64366434 L3.70115035,2.64366434 C3.84422378,2.64366434 3.96813287,2.59134266 4.07287762,2.4866993 C4.17741958,2.38215734 4.22974126,2.25814685 4.22974126,2.11497203 L4.22974126,0.528793706 C4.22974126,0.385618881 4.17741958,0.26170979 4.07267483,0.156965035 C3.96813287,0.0524230769 3.84412238,0 3.70094755,0 L1.58607692,0 C1.4429021,0 1.31899301,0.0524230769 1.21434965,0.156965035 C1.10970629,0.261608392 1.05738462,0.385618881 1.05738462,0.528793706 L1.05738462,2.11497203 C1.05738462,2.25814685 1.10970629,2.38215734 1.21434965,2.4866993 C1.31899301,2.59134266 1.4429021,2.64366434 1.58607692,2.64366434 L1.58607692,2.64366434 Z" id="Shape"></path>
        </g>
    </g>
</svg>