<?xml version="1.0" encoding="UTF-8"?>
<svg width="14px" height="14px" viewBox="0 0 14 14" version="1.1" xmlns="http://www.w3.org/2000/svg" xmlns:xlink="http://www.w3.org/1999/xlink">
    <!-- Generator: Sketch 40.3 (33839) - http://www.bohemiancoding.com/sketch -->
    <title>Shape</title>
    <desc>Created with Sketch.</desc>
    <defs></defs>
    <g id="Page-1" stroke="none" stroke-width="1" fill="none" fill-rule="evenodd">
        <path d="M12.1954739,3.98825334 C11.6589634,3.06904157 10.9311502,2.34122836 10.0119384,1.80471784 C9.09253488,1.26820732 8.08884307,1 7.00019178,1 C5.91163638,1 4.90775279,1.26820732 3.98844513,1.80471784 C3.06913746,2.34113247 2.34132426,3.06894568 1.80481373,3.98825334 C1.26820732,4.90756101 1,5.91154049 1,7 C1,8.08845951 1.26830321,9.0923431 1.80471784,10.0117467 C2.34122836,10.9307666 3.06904157,11.6587716 3.98834924,12.1952822 C4.9076569,12.7317927 5.91154049,13 7.00009589,13 C8.08865129,13 9.09263077,12.7317927 10.0118425,12.1952822 C10.9310543,11.6588675 11.6588675,10.9309584 12.1953781,10.0117467 C12.7317927,9.0923431 13,8.08836362 13,7 C13,5.91154049 12.7317927,4.90746512 12.1954739,3.98825334 L12.1954739,3.98825334 Z M7.75053939,10.1569257 C7.69827876,10.0945006 7.68015534,10.0423359 7.69588148,10.0005274 C7.69070336,10.0266098 7.67238817,10.0500072 7.64122357,10.0708156 C7.6151412,10.0395551 7.56815458,10.0004315 7.50055137,9.95363667 C7.43275639,9.90665005 7.38596155,9.86762238 7.35987918,9.836266 C7.34942705,9.82073165 7.33513928,9.79858081 7.31691998,9.76990938 C7.29870068,9.74123795 7.27530326,9.70355276 7.24663183,9.65666203 C7.21815218,9.6097713 7.19734382,9.56940116 7.18420674,9.53545572 C7.17126145,9.50160618 7.17011075,9.48214029 7.1803711,9.47696217 C7.08141152,9.51877068 6.93815026,9.49009925 6.75068322,9.39104377 C6.71424462,9.37023541 6.65949082,9.3155775 6.58661361,9.22697416 C6.5137364,9.1384667 6.43817423,9.09943904 6.36002301,9.10979527 C6.33403653,9.11497339 6.29884451,9.12408304 6.25454284,9.13712423 C6.21033706,9.15016541 6.17255598,9.15659011 6.14129549,9.15659011 C6.110035,9.15659011 6.06832239,9.14623388 6.01625354,9.12532963 C5.97463681,9.10969938 5.91863643,9.07968548 5.84834828,9.0354797 C5.77806012,8.99127391 5.72982692,8.96375318 5.70384044,8.95349283 C5.63614134,8.91705423 5.6022918,8.89883492 5.6022918,8.89883492 L5.47724984,8.83650573 C5.44598936,8.82087549 5.41338639,8.79623148 5.37953685,8.76228604 C5.3456873,8.7284365 5.32363235,8.69324447 5.31318023,8.65680587 C5.30282399,8.62554538 5.28978281,8.5630244 5.27415256,8.46924294 C5.25852232,8.37546148 5.23761807,8.30776238 5.21163159,8.26614566 C5.18046699,8.21407681 5.13616532,8.16200796 5.07882246,8.10993911 C5.02157549,8.05787026 4.96950664,8.03178789 4.92261591,8.03178789 C4.96432852,8.03178789 4.96432852,7.99678765 4.92261591,7.92630771 C4.88090329,7.85582778 4.84446469,7.8051014 4.8132042,7.77393681 C4.80275207,7.76348468 4.77149159,7.72973103 4.71942274,7.67229228 C4.66735389,7.61494942 4.62305221,7.56566141 4.58661361,7.5238529 C4.550175,7.48214029 4.51881862,7.43400297 4.49283214,7.37924917 C4.46684566,7.32449537 4.46157165,7.27904301 4.4772019,7.24250851 C4.48238002,7.23733039 4.4772019,7.22946733 4.46157165,7.21911109 C4.44594141,7.20875485 4.42647552,7.19820684 4.40298221,7.1878506 C4.37958479,7.17749437 4.35743396,7.16838471 4.33662559,7.16052165 C4.31572134,7.15275447 4.3000911,7.14882294 4.28973486,7.14882294 C4.30018699,7.16982308 4.3118857,7.20741238 4.32492688,7.26216618 C4.33796807,7.31691998 4.35225584,7.35729012 4.36788608,7.38337249 C4.37833821,7.40408496 4.42254399,7.47974301 4.50069521,7.6097713 C4.63618929,7.82849883 4.69861437,7.99017117 4.68825814,8.09430887 C4.65699765,8.10456921 4.6360934,8.09958287 4.62573716,8.07867862 C4.61528504,8.05796615 4.60742197,8.02929472 4.60224385,7.99276022 C4.59706573,7.95641751 4.59188762,7.93033514 4.58661361,7.9147049 C4.57098336,7.88334852 4.53061322,7.84949897 4.46550319,7.81296447 C4.40039315,7.77662176 4.36002301,7.74008726 4.34439277,7.70355276 C4.34966678,7.70355276 4.35609148,7.70115549 4.36395455,7.69578559 C4.37181762,7.69051158 4.37833821,7.68801841 4.38351633,7.68801841 C4.38879033,7.64122357 4.36146138,7.58129165 4.30152946,7.50831855 C4.24159755,7.43534545 4.21695354,7.3832766 4.22730978,7.35201611 C4.18559716,7.32075562 4.14915856,7.25957712 4.11789807,7.16848061 C4.08663758,7.0772882 4.06055521,7.01869876 4.03974685,6.99261639 C4.01893849,6.96145179 3.99295201,6.93412284 3.96169152,6.91062952 C3.93043103,6.8872321 3.89140337,6.86124562 3.84451263,6.8325742 C3.7976219,6.80390277 3.76636141,6.78443688 3.75073117,6.77398475 C3.74027904,6.76890253 3.71947068,6.74550511 3.68821019,6.70379249 C3.5163734,6.4954212 3.46430455,6.38342043 3.53200364,6.36779019 C3.46430455,6.38342043 3.40830417,6.33269406 3.36400249,6.21541928 C3.31970082,6.0982404 3.30541305,6.00829458 3.32104329,5.94586949 L3.30541305,5.93810232 C3.31068706,5.91719806 3.31327612,5.85611545 3.31327612,5.75447092 C3.31327612,5.65282639 3.31979671,5.5603874 3.3328379,5.47705806 C3.34587908,5.39372872 3.37061898,5.35201611 3.40705758,5.35201611 C3.37061898,5.35719423 3.34329002,5.32459126 3.32507072,5.254399 C3.30685142,5.18401496 3.30550894,5.13578175 3.32113919,5.10979527 C3.3263173,5.09416503 3.34981062,5.10471305 3.39142734,5.14105576 C3.43304406,5.17739848 3.45653737,5.20098768 3.46171549,5.21134391 C3.52941459,5.17480942 3.55549696,5.12801458 3.53986671,5.07067172 C3.52941459,5.04986336 3.47475668,4.99520545 3.37579709,4.9066021 C3.15179556,4.76084768 3.03720573,4.69046363 3.03202762,4.69564175 C3.06319221,4.63839478 3.05542504,4.58891499 3.00853431,4.54720238 C2.95646546,4.57846287 2.92654744,4.58623004 2.91868437,4.57069569 C2.9109172,4.55506545 2.90439661,4.52648991 2.8991226,4.48477729 C2.89394448,4.44316057 2.88090329,4.41976315 2.86009493,4.41448914 C2.83401256,4.40931102 2.80275207,4.38850266 2.76631347,4.35206406 C3.22985089,3.61245625 3.84182768,3.034329 4.60224385,2.61758642 C4.63350434,2.6124083 4.69075131,2.60981925 4.77408064,2.60981925 C4.81569737,2.61499736 4.85482092,2.62803855 4.89125953,2.64884691 C4.92769813,2.66965527 4.96547922,2.6983267 5.00450688,2.73476531 C5.04363044,2.77110802 5.07354845,2.79719039 5.09435681,2.81282064 C5.10480894,2.78156015 5.09176775,2.73466942 5.05532915,2.67214844 C5.06568538,2.64088795 5.12302824,2.60962746 5.22716594,2.57836698 C5.34693388,2.56273673 5.4250851,2.56532579 5.46152371,2.58623004 C5.43035911,2.53933931 5.37829026,2.47422928 5.30531716,2.39089994 L5.2662895,2.4299276 C5.22457688,2.393489 5.11526106,2.4117083 4.93815026,2.48458551 C4.92779403,2.48976363 4.90171166,2.50414729 4.85999904,2.52754471 C4.81838232,2.55094213 4.78443688,2.56791485 4.7584504,2.57827108 C4.72718991,2.58872321 4.69592942,2.59131227 4.66466894,2.58613415 C4.91465695,2.45073596 5.15946685,2.34381742 5.39909862,2.26576209 C5.41463298,2.27611833 5.44071535,2.29826917 5.47715395,2.33211871 C5.51359256,2.36596826 5.54226399,2.39070816 5.56307235,2.4063384 C5.54744211,2.39598216 5.53698998,2.40106439 5.53181186,2.42196864 C5.5110035,2.48439373 5.5110035,2.53646258 5.53181186,2.57817519 C5.55779834,2.61470969 5.59299036,2.63542216 5.63729204,2.64069617 C5.68159371,2.64587429 5.73490914,2.64328523 5.79743012,2.6328331 C5.8599511,2.62247687 5.90166371,2.61720286 5.92247207,2.61720286 L6.00062329,2.62506593 C6.16728197,2.64069617 6.232392,2.62506593 6.1959534,2.57817519 C6.21158364,2.59907945 6.22980294,2.64203864 6.25061131,2.70714868 C6.27141967,2.77225871 6.29491298,2.81790286 6.32089946,2.84388934 C6.34698183,2.82298509 6.35215995,2.78654648 6.3365297,2.73447763 C6.32089946,2.68240878 6.32089946,2.64587429 6.3365297,2.62506593 C6.34170782,2.61470969 6.35733806,2.60416167 6.38342043,2.59380544 C6.4095028,2.5834492 6.43942082,2.57175049 6.47327036,2.55870931 C6.50711991,2.54566812 6.52927075,2.53655847 6.53972287,2.53138035 C6.57098336,2.5104761 6.55007911,2.47403749 6.4772019,2.42196864 C6.46674977,2.41669463 6.44469483,2.40892746 6.41084528,2.39847533 C6.37699573,2.38821499 6.34698183,2.37766697 6.32099535,2.36731074 C6.29500887,2.3569545 6.26767992,2.34257084 6.23900849,2.32435154 C6.21033706,2.30613223 6.19729587,2.28532387 6.19988493,2.26183056 C6.20247399,2.23833725 6.21685765,2.20841924 6.24284413,2.17198063 C6.27410462,2.14599415 6.32492688,2.13554202 6.39521504,2.14072014 C6.46550319,2.14589826 6.51891451,2.15884355 6.55535312,2.17974781 C6.69602532,2.25789903 6.71683368,2.32828307 6.6178741,2.39070816 C6.67003884,2.39588627 6.73255981,2.41669463 6.80543702,2.45313324 C6.87831424,2.48966774 6.90698566,2.5286954 6.89135542,2.57040802 C6.93306803,2.4922568 6.97468476,2.45313324 7.01639737,2.45313324 C7.04238385,2.45840725 7.06721964,2.49359927 7.09061706,2.55870931 C7.11401448,2.62381934 7.12830225,2.65891547 7.13348037,2.66418948 C7.17528887,2.72143645 7.21671381,2.73447763 7.25861821,2.70321715 C7.30023493,2.67195666 7.34319413,2.6264084 7.3874958,2.56647648 C7.43170159,2.50664046 7.45644148,2.4793115 7.4616196,2.48448962 C7.40955075,2.46377715 7.40418085,2.4428729 7.44608525,2.42206453 C7.52404469,2.3751738 7.59442873,2.36213262 7.65694971,2.38303687 C7.67248406,2.39339311 7.6934842,2.41688642 7.71937479,2.45322913 C7.76607374,2.54710649 7.75821067,2.59131227 7.69597737,2.58613415 C7.74277221,2.62784677 7.76214221,2.67991562 7.75447092,2.7423407 C7.74670374,2.80486168 7.70614182,2.83353311 7.63326461,2.8282591 C7.60727813,2.8282591 7.56940116,2.81521791 7.51992137,2.78923143 C7.47044158,2.76324495 7.4326605,2.74895718 7.40657813,2.74627223 C7.38049576,2.74358728 7.34405715,2.75797095 7.29716642,2.78923143 C7.27635806,2.8153138 7.2490291,2.85961548 7.21517956,2.92204056 C7.18123412,2.98465743 7.1513161,3.02886321 7.12523373,3.05484969 C7.04717841,3.13300091 6.91686244,3.16167234 6.73457352,3.14076809 C6.75020377,3.14076809 6.74886129,3.15639833 6.73064199,3.18765882 C6.7123268,3.21891931 6.68768279,3.25411133 6.6564223,3.29313899 C6.62516182,3.33216666 6.60694251,3.3543175 6.6017644,3.35949561 C6.55487366,3.41156446 6.52361318,3.47149638 6.50798293,3.53919547 C6.50798293,3.5496476 6.50539387,3.58483962 6.50011986,3.64467565 C6.49484586,3.70460757 6.48448962,3.75025171 6.46885938,3.78141631 C6.53138035,3.76578607 6.58086014,3.79714245 6.61729875,3.87519778 C6.64855924,3.94817088 6.64855924,3.98719854 6.61729875,3.99247255 C6.78923143,3.96648607 6.94025986,3.97684231 7.07057583,4.02373304 C7.25804286,4.09143213 7.3649614,4.15913123 7.39094788,4.22683032 C7.42211248,4.17993959 7.49757875,4.17725464 7.61744259,4.21896725 C7.66433332,4.24495373 7.70585415,4.32320084 7.74248454,4.45332502 C7.7632929,4.53138035 7.79848492,4.59917534 7.84796471,4.6564223 C7.89754039,4.71366927 7.95075994,4.72929952 8.00819869,4.70331304 L8.03150022,4.68768279 C8.05240447,4.67732656 8.0692813,4.66812101 8.08232248,4.66035384 C8.09536367,4.65258666 8.10965144,4.64213454 8.12518579,4.62909335 C8.14091192,4.61605216 8.15002158,4.60435345 8.15251474,4.59399722 C8.15500791,4.58364098 8.15117227,4.57309297 8.14091192,4.56273673 C8.10437743,4.53147624 8.07704847,4.48851704 8.05892506,4.43385914 C8.04080165,4.37920123 8.04473318,4.33096802 8.07062377,4.28925541 C8.08625402,4.26844704 8.12787074,4.23718656 8.19566572,4.19547394 C8.26336482,4.15376133 8.30507743,4.1121446 8.32061179,4.07043199 C8.34161193,4.0027329 8.31552956,3.94673251 8.24265235,3.90243084 C8.16967924,3.85822506 8.13314475,3.81785492 8.13314475,3.78132042 C8.13314475,3.75523805 8.15011747,3.72407345 8.18387112,3.68753896 C8.21781656,3.65110035 8.23220022,3.61715491 8.22692621,3.58599032 C8.22692621,3.57026418 8.21772067,3.53775711 8.19959726,3.48827732 C8.18147385,3.43870163 8.17092583,3.40226303 8.16833677,3.37886561 C8.16574771,3.3553723 8.17754231,3.32804334 8.2034329,3.29687875 C8.23977561,3.27597449 8.3257899,3.27731697 8.46118809,3.30071439 C8.59658628,3.3242077 8.68518962,3.3489476 8.72690224,3.37493407 C8.74262837,3.38529031 8.77647792,3.40092055 8.82854677,3.42182481 C8.88061562,3.44253728 8.92625977,3.46468811 8.96538332,3.48818143 C9.00421921,3.51157885 9.02646593,3.53363379 9.03154816,3.55453804 L8.99261639,3.55453804 C9.02905499,3.58589442 9.05120583,3.62223714 9.05887712,3.66394975 C9.06674018,3.70575826 9.0472743,3.73692286 9.00047946,3.75782711 C9.03154816,3.7525531 9.07345256,3.76041617 9.12552141,3.78122453 C9.20885075,3.81248502 9.2114398,3.84115645 9.13328858,3.86714293 C9.14891883,3.86186892 9.17097377,3.85678669 9.19954931,3.85151268 C9.22822074,3.84633456 9.25027569,3.8384715 9.26600182,3.82811526 C9.27626217,3.82284125 9.28939924,3.81382749 9.3049336,3.80078631 C9.32065973,3.78774512 9.33226255,3.77988205 9.34012562,3.77738889 C9.34798868,3.77479983 9.3595915,3.77211488 9.37531764,3.76952582 C9.39085199,3.76693676 9.40638635,3.77086829 9.42201659,3.78122453 C9.42738649,3.78122453 9.43898931,3.76818334 9.45720861,3.74219686 C9.47523613,3.71621039 9.49498969,3.69012801 9.51570216,3.66414154 C9.53651052,3.63815506 9.55463394,3.62511387 9.57036007,3.62511387 C9.58589442,3.62511387 9.60027808,3.63153857 9.61322338,3.64457976 C9.62636045,3.65762094 9.6366208,3.67190871 9.64448387,3.68753896 C9.65225104,3.7031692 9.66001822,3.72014192 9.66788129,3.73826533 C9.67574435,3.75648463 9.68207316,3.77086829 9.68734717,3.78122453 C9.69770341,3.80721101 9.7225392,3.83463585 9.76147097,3.86321139 C9.80049863,3.89178693 9.82523853,3.91921178 9.83569066,3.94519825 C9.84096466,3.9608285 9.85112912,3.99995205 9.86685525,4.06247303 C9.88238961,4.12499401 9.90338975,4.16795321 9.92928034,4.19135063 C9.95536271,4.21484394 9.99439037,4.23430982 10.0464592,4.24994007 C10.0569113,4.25521408 10.0804047,4.25252913 10.1167474,4.24217289 C10.153186,4.23172077 10.1831999,4.22913171 10.2065973,4.23430982 C10.2301865,4.23948794 10.2417893,4.2602963 10.2417893,4.2968308 C10.2730498,4.26557031 10.2885842,4.24466606 10.2885842,4.23430982 C10.2938582,4.30200892 10.3106391,4.35676272 10.3394064,4.39837944 C10.3680779,4.43999616 10.4136261,4.45831136 10.4761471,4.45303735 L10.4605169,4.62497003 C10.4449825,4.65095651 10.4058589,4.6704224 10.3432421,4.68346359 C10.2807211,4.69650477 10.2416934,4.70829937 10.2259673,4.71865561 C10.2104329,4.72383372 10.172556,4.75509421 10.11272,4.81243707 C10.052788,4.86977993 10.028144,4.90362948 10.0385003,4.91398571 C9.9500887,4.81502613 9.81718368,4.7863547 9.64016877,4.82806732 C9.4422496,4.8593278 9.30675553,4.89058829 9.23397421,4.92184878 C9.15064487,4.96356139 9.09330201,5.00258906 9.06204152,5.03902766 C9.05676751,5.04420578 9.04784964,5.06252098 9.03471257,5.09368557 C9.02167138,5.12494606 9.00872609,5.15361749 8.99578079,5.17960397 C8.98264372,5.20559045 8.9710409,5.21863163 8.96068466,5.21863163 C8.99204104,5.21354941 9.02704128,5.18871362 9.06616484,5.14450784 C9.1051925,5.10020617 9.13002829,5.07556216 9.14028863,5.07028815 C9.27559093,4.9817807 9.3875917,4.95052021 9.4766745,4.97717793 C9.59116843,5.00843841 9.60938774,5.05015103 9.53123652,5.10221988 C9.52097617,5.11257611 9.49355133,5.11650765 9.44934554,5.11391859 C9.40513976,5.11132953 9.37512586,5.11257611 9.35939972,5.11785012 C9.40638635,5.12820636 9.44541401,5.14259002 9.47677039,5.16071343 C9.50793499,5.17893273 9.51579805,5.20367263 9.50016781,5.23493312 C9.58340126,5.28182385 9.59912739,5.3338927 9.54705854,5.39123556 C9.47926356,5.45903054 9.39871506,5.48760608 9.3048377,5.47715395 C9.32056384,5.47715395 9.32056384,5.48760608 9.3048377,5.50841444 L9.17193268,5.59433284 C9.16157645,5.59941506 9.1277269,5.61245625 9.07038404,5.6333605 C9.01304119,5.65407297 8.97401352,5.67766218 8.95310927,5.70364866 C8.93757491,5.72445702 8.92971185,5.7557175 8.92971185,5.79752601 C8.92971185,5.83923862 8.92712279,5.87049911 8.92184878,5.89130747 C8.91676655,5.91221173 8.8958623,5.91729395 8.85951959,5.90693772 C8.84379345,5.93819821 8.79565613,5.9629381 8.71491586,5.98106151 C8.63417558,5.99928082 8.58086014,6.02660977 8.55477777,6.06304838 C8.58594237,6.10476099 8.5834492,6.14637771 8.5469147,6.18809033 C8.48439373,6.24025507 8.42963993,6.23498106 8.38284509,6.17246009 C8.35685861,6.18291221 8.33729683,6.20889869 8.32425565,6.25061131 C8.31131035,6.29232392 8.29165268,6.32099535 8.26576209,6.3365297 C8.30229659,6.39387256 8.29692669,6.43558518 8.25022774,6.46157165 C8.25540586,6.46157165 8.26710457,6.46684566 8.28532387,6.4772019 C8.30344728,6.48755813 8.32300906,6.50059932 8.34391331,6.51622956 C8.36472168,6.53185981 8.37766697,6.53972287 8.38284509,6.53972287 C8.36213262,6.58651772 8.3333653,6.60991514 8.29692669,6.60991514 C8.32818718,6.69334037 8.28925541,6.78453277 8.1798437,6.88339646 C8.15884355,6.90420482 8.12633648,6.92501319 8.08203481,6.94591744 C8.03763724,6.9667258 7.997363,6.98360263 7.9608285,6.99664381 C7.924294,7.009685 7.90358153,7.01879465 7.89840341,7.02397277 C7.84633456,7.07095939 7.80721101,7.11909671 7.78122453,7.1685765 C7.75523805,7.21805629 7.75130652,7.2661936 7.76942993,7.31308434 C7.78764923,7.36007096 7.83588244,7.39113967 7.91412955,7.40696169 L7.92170494,7.46938678 L7.92170494,7.60996308 L7.92956801,7.67248406 C7.93493791,7.70892266 7.93886944,7.74152563 7.94136261,7.77029295 C7.94385578,7.79896438 7.94385578,7.83530709 7.94136261,7.87970466 C7.93886944,7.92391044 7.92707484,7.94865033 7.90626648,7.95373256 C7.88555401,7.95910246 7.85688258,7.95373256 7.82034808,7.93810232 C7.77853958,7.91729395 7.72915568,7.80270413 7.67181282,7.59442873 C7.66136069,7.54235988 7.63000432,7.47993479 7.57793547,7.40696169 C7.55194899,7.43294817 7.52979815,7.449825 7.51157885,7.45759218 C7.49355133,7.46545524 7.48041425,7.46689361 7.47274296,7.46152371 C7.4648799,7.45634559 7.45059213,7.44455099 7.42968787,7.42642758 C7.40887951,7.40830417 7.3907561,7.39382462 7.37502997,7.38356427 C7.34904349,7.36793403 7.30349523,7.35489284 7.2382893,7.34453661 C7.17327516,7.33418037 7.13271324,7.32104329 7.11727478,7.30550894 C6.99213693,7.3993863 6.91657477,7.37579709 6.89058829,7.23531668 C6.88023206,7.26130316 6.88147864,7.29649518 6.89451983,7.34079685 C6.90756101,7.38509853 6.9140816,7.40974253 6.9140816,7.41492065 C6.877643,7.48271564 6.82039603,7.48789375 6.74224481,7.430455 C6.71098432,7.3993863 6.63935369,7.39545476 6.52735293,7.41885218 C6.41535216,7.4422496 6.34113247,7.44618114 6.30469387,7.430455 C6.30996788,7.430455 6.32032411,7.43831807 6.33595436,7.45404421 C6.3515846,7.46430455 6.36203673,7.47207173 6.36721484,7.47734574 C6.36194084,7.49824999 6.35417366,7.51378434 6.34372153,7.52423647 C6.33326941,7.53449681 6.32281728,7.53842835 6.31246104,7.53593518 C6.30200892,7.53334612 6.29031021,7.53334612 6.27726902,7.53593518 C6.26422784,7.53842835 6.25252913,7.54235988 6.242077,7.54763389 C6.22126864,7.56316824 6.19528216,7.5904972 6.16402167,7.62952486 C6.13276118,7.66855252 6.10936376,7.69329242 6.09373352,7.70364866 C6.12489812,7.7868821 6.13928178,7.85074555 6.13669272,7.89495134 C6.13400777,7.9393489 6.12624059,8.00445893 6.11319941,8.09028144 C6.10015822,8.17619984 6.09363763,8.2453373 6.09363763,8.29740615 C6.09363763,8.38063959 6.11837752,8.4772019 6.16785731,8.58651772 C6.21733711,8.69583353 6.27592655,8.7712998 6.34362564,8.81301242 C6.38016014,8.83391667 6.44268111,8.84686196 6.53118857,8.85194419 C6.61969603,8.8572182 6.682217,8.85194419 6.71865561,8.83640984 C6.7499161,8.82087549 6.77331352,8.80256029 6.78894376,8.78184782 C6.804574,8.76094357 6.81761519,8.73092966 6.82797142,8.691902 C6.83842355,8.65297023 6.84628662,8.62564127 6.85146474,8.61001103 C6.88790334,8.51105145 6.95560244,8.4589826 7.05446613,8.45370859 C7.11717888,8.44843458 7.16253536,8.45514695 7.19130268,8.47317447 C7.21997411,8.49139378 7.23167282,8.51613367 7.22639881,8.54739416 C7.2211248,8.57865465 7.21076857,8.61116172 7.19523421,8.64510716 C7.17960397,8.6790526 7.16004219,8.71664189 7.13664477,8.7584504 C7.11334324,8.80025891 7.09895958,8.8314235 7.09387736,8.85232776 C7.08342523,8.89404037 7.07421969,8.95253392 7.0665484,9.02819197 C7.05868533,9.10365824 7.05206885,9.14930239 7.04689073,9.16493264 C7.05734286,9.17011075 7.09637052,9.17269981 7.16406962,9.17269981 C7.16406962,9.16234358 7.16800115,9.14537086 7.17586422,9.12197344 C7.1835355,9.09848013 7.18746704,9.08419236 7.18746704,9.07901424 C7.21354941,9.12072685 7.25526202,9.14402838 7.31260488,9.14930239 C7.36985185,9.15448051 7.41156446,9.13367215 7.43764683,9.08678142 C7.44809896,9.10241166 7.47935945,9.14153522 7.53152419,9.20415208 C7.58359304,9.26648128 7.61226447,9.31855013 7.61744259,9.36035863 C7.6226207,9.38126289 7.63297694,9.41501654 7.64851129,9.46200316 C7.66423743,9.5088939 7.66951144,9.54149686 7.66423743,9.55981205 C7.65905931,9.57783957 7.63297694,9.58704512 7.5861821,9.58704512 C7.56537374,9.58704512 7.55233255,9.59490818 7.54715443,9.61044254 C7.54178453,9.62616867 7.54178453,9.64553867 7.54715443,9.66903198 C7.55242844,9.6924294 7.55894903,9.71458024 7.56662032,9.7353886 C7.57448339,9.75610107 7.58483962,9.7783478 7.59778492,9.80174522 C7.61101788,9.82504675 7.61744259,9.83943041 7.61744259,9.84460852 C7.71112816,10.0164453 7.83875917,10.0633361 8.00023973,9.98528072 C8.00023973,10.1363092 7.96370523,10.2195426 7.89073213,10.2351728 C7.84940308,10.2455291 7.80260824,10.2192549 7.75053939,10.1569257 L7.75053939,10.1569257 Z M7.86723882,11.9218967 C7.85697847,11.8698279 7.85170446,11.8282112 7.85227981,11.7971424 C7.84690991,11.7553339 7.8652251,11.6993336 7.90684183,11.6291413 C7.94845855,11.558949 7.96926691,11.5054418 7.96926691,11.4690032 C7.88593757,11.4481949 7.85467709,11.3803999 7.87538956,11.2659059 C7.88584168,11.1877547 7.96130795,11.083617 8.10188426,10.9533969 C8.20103562,10.8647936 8.23210433,10.7397516 8.19576161,10.578367 C8.18003548,10.5106679 8.16699429,10.4116124 8.15663806,10.2813923 C8.14637771,10.1511723 8.1358297,10.0599799 8.12537757,10.007911 C8.12537757,10.0235413 8.15011747,10.037829 8.19969315,10.0508702 C8.24917294,10.0638155 8.27909095,10.0807882 8.28954308,10.1015007 C8.29989931,10.0859663 8.31284461,10.0572949 8.32857074,10.0155823 C8.3441051,9.97386968 8.35983123,9.94270509 8.37526969,9.92180083 C8.38572182,9.90617059 8.40777677,9.8867047 8.4417222,9.86321139 C8.47557175,9.83981397 8.49772259,9.8255262 8.50807882,9.82034808 C8.51833917,9.81516997 8.54183248,9.79829314 8.57827108,9.76962171 C8.61470969,9.74095028 8.64472359,9.71889533 8.66821691,9.70326509 C8.69180611,9.68763485 8.72287481,9.67593614 8.76199837,9.66816896 C8.80112193,9.66030589 8.82835499,9.6720046 8.84388934,9.70326509 C8.86997171,9.73452558 8.86488949,9.78266289 8.82835499,9.84786882 C8.79182049,9.91297886 8.79182049,9.958623 8.82835499,9.98470537 C8.833629,9.96897924 8.83871122,9.9350338 8.84388934,9.88296495 C8.84916335,9.8308961 8.86488949,9.79177255 8.89087596,9.76569018 C8.92204056,9.73452558 8.95195858,9.71621039 8.9807259,9.71112816 C9.00930143,9.70575826 9.03528791,9.70968979 9.05868533,9.72282687 C9.08217865,9.73577216 9.1095076,9.75389557 9.1406722,9.77748478 C9.17193268,9.80078631 9.20060411,9.81516997 9.22659059,9.82034808 C9.30464592,9.84633456 9.39852328,9.90367742 9.50793499,9.99218488 C9.50266098,9.98691087 9.50266098,9.98048617 9.50793499,9.9726231 C9.51320899,9.96485592 9.52346934,9.95708875 9.53919547,9.94922568 C9.55472983,9.94155439 9.5690176,9.93369133 9.58205878,9.92582826 C9.59500408,9.91796519 9.60929184,9.91163638 9.62492209,9.90636237 L9.6484154,9.8984993 C9.68475811,9.8984993 9.71084049,9.89600614 9.72637484,9.89063624 C9.74190919,9.88545812 9.76425181,9.89063624 9.79273146,9.90636237 C9.821307,9.92189673 9.84096466,9.93359544 9.85122501,9.9414585 C9.86167713,9.94922568 9.87989644,9.96351345 9.90588292,9.9844177 C9.9318694,10.0052261 9.95028048,10.0208563 9.96044493,10.0312125 C9.97617107,10.0414729 10.0047466,10.059884 10.0463633,10.0858705 C10.0881718,10.1118569 10.1206789,10.1326653 10.1441722,10.1482955 C10.1676655,10.1638299 10.1884739,10.1873232 10.2065014,10.2183919 C10.2247207,10.2498442 10.2314331,10.2836937 10.2261591,10.3201323 C10.2574196,10.3254063 10.3198447,10.3461188 10.4136261,10.3825574 C10.4293523,10.3929137 10.4617634,10.4021192 10.5113391,10.4097905 C10.5609148,10.4176535 10.5934219,10.4294481 10.6090521,10.4449825 C9.85438941,11.2422208 8.94016397,11.7344297 7.86723882,11.9218967 L7.86723882,11.9218967 Z" id="Shape" stroke="#FFFFFF" fill="#D2D2D2"></path>
    </g>
</svg>