<?xml version="1.0" encoding="UTF-8"?>
<svg width="18px" height="18px" viewBox="0 0 18 18" version="1.1" xmlns="http://www.w3.org/2000/svg" xmlns:xlink="http://www.w3.org/1999/xlink">
  <g stroke="none" stroke-width="1" fill="none" fill-rule="evenodd">
    <rect class="rect" stroke="#0075AA" x="1" y="1" width="16" height="16" rx="3"></rect>
    <path class="check" fill="#0075AA" d="M13.2174912,5.16790677 C13.0797465,5.02576416 12.912278,4.95473958 12.7154482,4.95473958 C12.5185277,4.95473958 12.3510593,5.02576416 12.2133146,5.16790677 L7.36995945,10.17028 L5.19930334,7.92412768 C5.06146808,7.78198507 4.89409023,7.71096049 4.69726039,7.71096049 C4.50033993,7.71096049 4.33296207,7.78198507 4.19512682,7.92412768 L3.19104091,8.95959127 C3.05320565,9.10173388 2.98433333,9.2743423 2.98433333,9.47741652 C2.98433333,9.68039729 3.05320565,9.85309916 3.19104091,9.99514831 L5.86373997,12.7513692 L6.8679165,13.7868328 C7.00566114,13.9289754 7.17303899,14 7.36995945,14 C7.56678929,14 7.73416715,13.928882 7.8720024,13.7868328 L8.87617893,12.7513692 L14.2215771,7.23892741 C14.3593217,7.0967848 14.4282846,6.92417638 14.4282846,6.72110216 C14.4283753,6.51812139 14.3593217,6.34551297 14.2215771,6.20337036 L13.2174912,5.16790677 Z"></path>
  </g>
</svg>